<svg width="25" height="25" viewBox="0 0 25 25" fill="none" xmlns="http://www.w3.org/2000/svg">
<path d="M15.7654 0.206085C16.4284 0.206085 17.0643 0.469477 17.5332 0.938318L23.6545 7.05964C24.1233 7.52848 24.3867 8.16436 24.3867 8.82741V15.5848C24.3867 16.2478 24.1233 16.8837 23.6545 17.3525L17.5332 23.4739C17.0643 23.9427 16.4284 24.2061 15.7654 24.2061H9.00804C8.345 24.2061 7.70911 23.9427 7.24027 23.4739L1.11895 17.3525C0.650111 16.8837 0.386719 16.2478 0.386719 15.5848V8.82741C0.386719 8.16436 0.650111 7.52848 1.11895 7.05964L7.24027 0.938318C7.70911 0.469477 8.345 0.206085 9.00804 0.206085H15.7654ZM15.7654 2.20609H9.00804C8.87543 2.20609 8.74825 2.25876 8.65449 2.35253L2.53317 8.47385C2.4394 8.56762 2.38672 8.6948 2.38672 8.82741V15.5848C2.38672 15.7174 2.4394 15.8446 2.53317 15.9383L8.65449 22.0596C8.74825 22.1534 8.87543 22.2061 9.00804 22.2061H15.7654C15.898 22.2061 16.0252 22.1534 16.119 22.0596L22.2403 15.9383C22.334 15.8446 22.3867 15.7174 22.3867 15.5848V8.82741C22.3867 8.6948 22.334 8.56762 22.2403 8.47385L16.119 2.35253C16.0252 2.25876 15.898 2.20609 15.7654 2.20609ZM12.3867 15.0062L12.5095 15.0124C13.1146 15.0738 13.5867 15.5848 13.5867 16.2061C13.5867 16.8688 13.0495 17.406 12.3868 17.406L12.264 17.3998C11.659 17.3383 11.1868 16.8274 11.1868 16.2061C11.1868 15.5434 11.724 15.0062 12.3867 15.0062ZM12.3867 6.20609C12.939 6.20609 13.3867 6.6538 13.3867 7.20609V12.2061C13.3867 12.7584 12.939 13.2061 12.3867 13.2061C11.8344 13.2061 11.3867 12.7584 11.3867 12.2061V7.20609C11.3867 6.6538 11.8344 6.20609 12.3867 6.20609Z" fill="#E64646"/>
</svg>
